<svg id="_x31__x2C_5" enable-background="new 0 0 24 24" height="512" viewBox="0 0 24 24" width="512" xmlns="http://www.w3.org/2000/svg"><path d="m16.25 20.5h-8.5c-.414 0-.75-.336-.75-.75s.336-.75.75-.75h8.5c.414 0 .75.336.75.75s-.336.75-.75.75z"/><path d="m14.31 24h-4.6c-1.494 0-2.71-1.216-2.71-2.71v-2.804c0-1.128-.487-2.237-1.37-3.124-2.073-2.08-2.986-4.953-2.505-7.883.636-3.875 3.943-6.997 7.865-7.424 2.598-.285 5.091.512 7.02 2.242 1.9 1.705 2.99 4.148 2.99 6.703 0 2.406-.937 4.668-2.639 6.371-.878.879-1.361 1.984-1.361 3.114v2.805c0 1.494-1.207 2.71-2.69 2.71zm-2.3-22.5c-.284 0-.57.016-.858.047-3.264.355-6.018 2.953-6.547 6.176-.402 2.448.358 4.847 2.087 6.581 1.166 1.169 1.808 2.655 1.808 4.182v2.804c0 .667.543 1.21 1.21 1.21h4.6c.656 0 1.19-.543 1.19-1.21v-2.805c0-1.53.64-3.013 1.801-4.175 1.418-1.418 2.199-3.305 2.199-5.31 0-2.129-.909-4.166-2.493-5.586-1.393-1.25-3.142-1.914-4.997-1.914z"/><path d="m11.25 13c-.056 0-.112-.006-.169-.019-.404-.093-.655-.496-.563-.899l1.5-6.5c.093-.403.496-.652.899-.563.404.093.655.496.563.899l-1.5 6.5c-.079.348-.388.582-.73.582z"/><path d="m15.25 12c-.205 0-.409-.083-.558-.248-.277-.308-.252-.782.056-1.06l1.881-1.692-1.881-1.692c-.308-.277-.333-.751-.056-1.06.279-.309.752-.333 1.06-.056l2.5 2.25c.158.143.248.346.248.558s-.09.415-.248.558l-2.5 2.25c-.144.129-.323.192-.502.192z"/><path d="m8.75 12c-.179 0-.358-.063-.502-.192l-2.5-2.25c-.158-.143-.248-.346-.248-.558s.09-.415.248-.558l2.5-2.25c.308-.276.782-.252 1.06.056.276.308.252.782-.056 1.06l-1.881 1.692 1.881 1.692c.308.277.333.751.056 1.06-.149.165-.353.248-.558.248z"/></svg>